# xmcd
#
# Track frame offsets: 
#        150
#        10765
#        20325
#        32588
#        45831
#        60125
#        70658
#        80811
#        94011
#        113410
#        128693
#        143129
#        157097
#        172613
#        192598
#        207772
#        228697
#        236941
#        258542
#        298870
#
# Disc length: 4326 seconds
#
# Revision: 0
# Processed by: cddbd v1.5.2PL0 Copyright (c) Steve Scherf et al.
# Submitted via: ExactAudioCopy v0.99pb5
#
DISCID=0810e414
DTITLE=Frank Sinatra  - Entertain Me Box - My Way - Disc 2  
DYEAR=1900
DGENRE=
TTITLE0=Night And Day
TTITLE1=Where Or When
TTITLE2=For Once In My Life
TTITLE3=The Lady Is A Tramp
TTITLE4=Imagination
TTITLE5=What's New
TTITLE6=Didn't We
TTITLE7=Witchcraft
TTITLE8=All By Myself
TTITLE9=If
TTITLE10=The Hungry Years
TTITLE11=I've Got You Under My Skin
TTITLE12=Empty Tables
TTITLE13=I Sing The Songs
TTITLE14=My Kind Of Town
TTITLE15=My Way
TTITLE16=I Am What I Am
TTITLE17=Through The Years
TTITLE18=Music Of The Night
TTITLE19=Downtown \\ These Boots Are Made For Walking
EXTD=
EXTT0=
EXTT1=
EXTT2=
EXTT3=
EXTT4=
EXTT5=
EXTT6=
EXTT7=
EXTT8=
EXTT9=
EXTT10=
EXTT11=
EXTT12=
EXTT13=
EXTT14=
EXTT15=
EXTT16=
EXTT17=
EXTT18=
EXTT19=
PLAYORDER=
